<svg data-logo="logo" xmlns="http://www.w3.org/2000/svg" viewBox="0 0 268 44">
          <g id="logogram" transform="translate(0, 2) rotate(0)"><path d="M0 24.7021C0 22.6932 0.395671 20.7039 1.16447 18.848C1.93328 16.9919 3.06009 15.3055 4.48064 13.885C5.90118 12.4644 7.58755 11.3376 9.44355 10.5688C11.2996 9.80008 13.2889 9.40435 15.2979 9.40435V24.7021H0Z" fill="#EF4444"></path><path d="M0 24.7021C0 26.7111 0.395671 28.7004 1.16447 30.5564C1.93328 32.4124 3.06009 34.0988 4.48064 35.5194C5.90118 36.9399 7.58755 38.0668 9.44355 38.8356C11.2996 39.6044 13.2889 40 15.2979 40V24.7021H0Z" fill="#F87171"></path><path d="M30.5955 24.7021C30.5955 26.7111 30.2001 28.7004 29.4314 30.5564C28.6626 32.4124 27.5358 34.0988 26.115 35.5194C24.6945 36.9399 23.0081 38.0668 21.152 38.8356C19.2961 39.6044 17.3068 40 15.2979 40V24.7021H30.5955Z" fill="#FCA5A5"></path><path d="M40.0277 11.4862C40.0277 17.8299 34.885 22.9724 28.5414 22.9724H17.0553V11.4862C17.0553 5.14258 22.1979 0 28.5414 0C34.885 0 40.0277 5.14258 40.0277 11.4862Z" fill="#FB7185"></path></g>
          <g id="logotype" transform="translate(46, 0)"><path fill="#1c1917" d="M30.13 32.67L30.13 36L21.03 36L21.03 32.67L23.66 32.67L23.66 26.09L12.91 26.09L12.91 32.67L15.50 32.67L15.50 36L6.40 36L6.40 32.67L9.03 32.67L9.03 16.57L6.40 16.57L6.40 13.25L15.50 13.25L15.50 16.57L12.91 16.57L12.91 22.80L23.66 22.80L23.66 16.57L21.03 16.57L21.03 13.25L30.13 13.25L30.13 16.57L27.54 16.57L27.54 32.67L30.13 32.67ZM43.57 30.61L46.69 31.20Q46.48 33.27 44.66 34.81Q42.84 36.35 39.65 36.35L39.65 36.35Q36.22 36.35 34.02 34.34Q31.81 32.33 31.81 28.41L31.81 28.41Q31.81 24.80 33.82 22.38Q35.84 19.97 39.44 19.97L39.44 19.97Q42.70 19.97 44.60 21.91Q46.51 23.85 46.55 26.83L46.55 26.83Q46.55 27.81 46.34 28.93L46.34 28.93L35.73 28.93Q36.05 33.34 39.93 33.34L39.93 33.34Q41.75 33.34 42.54 32.47Q43.33 31.59 43.57 30.61L43.57 30.61ZM35.77 26.62L42.70 26.62Q42.84 25.22 42.05 23.98Q41.26 22.73 39.41 22.73L39.41 22.73Q37.73 22.73 36.85 23.85Q35.98 24.98 35.77 26.62L35.77 26.62ZM49.48 25.36L50.15 21.44Q51.90 20.60 53.27 20.28Q54.63 19.97 56.41 19.97L56.41 19.97Q59.04 19.97 60.74 21.30Q62.44 22.63 62.44 25.29L62.44 25.29L62.44 32.36Q62.44 33.76 63.59 33.76L63.59 33.76Q63.91 33.76 64.39 33.62L64.39 33.62L64.43 35.69Q63.27 36.35 61.91 36.35L61.91 36.35Q58.94 36.35 58.69 33.23L58.69 33.23L58.69 33.16Q57.99 34.39 56.71 35.37Q55.44 36.35 53.55 36.35L53.55 36.35Q51.90 36.35 50.31 35.35Q48.71 34.35 48.71 31.87L48.71 31.87Q48.71 28.96 51.02 28.04Q53.34 27.11 56.03 27.11L56.03 27.11Q56.70 27.11 57.39 27.14Q58.09 27.18 58.69 27.25L58.69 27.25L58.69 26.38Q58.69 24.98 58.20 23.85Q57.71 22.73 55.75 22.73L55.75 22.73Q55.02 22.73 54.37 22.84Q53.72 22.95 53.13 23.26L53.13 23.26L52.49 25.67L49.48 25.36ZM58.69 29.77L58.69 29.77L58.69 29.21Q58.09 29.14 57.47 29.07Q56.84 29 56.17 29L56.17 29Q54.77 29 53.67 29.49Q52.56 29.98 52.56 31.45L52.56 31.45Q52.56 33.59 54.84 33.59L54.84 33.59Q56.17 33.59 57.36 32.62Q58.55 31.66 58.69 29.77ZM74.06 33.13L74.06 36L65.66 36L65.66 33.13L68.00 33.13L68.00 14.79L65.52 14.79L65.52 11.92L71.71 11.92L71.71 33.13L74.06 33.13ZM102.72 13.25L103.42 20.67L100.06 20.95L99.36 16.57L94.92 16.57L94.92 32.67L98.73 32.67L98.73 36L87.36 36L87.36 32.67L91.03 32.67L91.03 16.57L86.55 16.57L85.85 20.95L82.53 20.67L83.23 13.25L102.72 13.25ZM119.66 28.16L119.66 28.16Q119.66 31.84 117.33 34.09Q115.01 36.35 111.30 36.35L111.30 36.35Q107.69 36.35 105.50 34.18Q103.32 32.01 103.32 28.30L103.32 28.30Q103.32 24.87 105.38 22.40Q107.45 19.93 111.51 19.93L111.51 19.93Q115.60 19.93 117.63 22.38Q119.66 24.84 119.66 28.16ZM115.78 28.05L115.78 28.05Q115.78 25.53 114.57 24.20Q113.36 22.88 111.44 22.88L111.44 22.88Q109.44 22.88 108.32 24.29Q107.20 25.71 107.20 28.09L107.20 28.09Q107.20 30.33 108.27 31.87Q109.34 33.41 111.44 33.41L111.44 33.41Q113.47 33.41 114.62 31.92Q115.78 30.43 115.78 28.05ZM139.68 20.28L139.68 23.19L137.41 23.19L137.41 35.41Q137.41 39.15 135.32 41.46Q133.24 43.77 129.11 43.77L129.11 43.77Q126.66 43.77 124.53 42.72Q122.39 41.67 121.52 39.12L121.52 39.12L124.42 37.54Q125.89 40.76 129.18 40.76L129.18 40.76Q131.14 40.76 132.40 39.36Q133.66 37.96 133.66 35.37L133.66 35.37L133.66 33.02Q133.00 34.28 131.75 35.18Q130.51 36.07 128.34 36.07L128.34 36.07Q125.58 36.07 123.56 34.13Q121.55 32.19 121.55 28.48L121.55 28.48Q121.55 25.11 123.35 22.54Q125.16 19.97 128.59 19.97L128.59 19.97Q132.16 19.97 133.66 22.73L133.66 22.73L133.66 20.28L139.68 20.28ZM133.66 28.51L133.66 28.51L133.66 27.25Q133.66 25.29 132.54 24.13Q131.42 22.98 129.74 22.98L129.74 22.98Q127.78 22.98 126.73 24.40Q125.68 25.81 125.68 28.23L125.68 28.23Q125.68 30.71 126.73 31.89Q127.78 33.06 129.39 33.06L129.39 33.06Q131.39 33.06 132.52 31.66Q133.66 30.26 133.66 28.51ZM152.88 30.61L155.99 31.20Q155.78 33.27 153.96 34.81Q152.14 36.35 148.96 36.35L148.96 36.35Q145.53 36.35 143.32 34.34Q141.12 32.33 141.12 28.41L141.12 28.41Q141.12 24.80 143.13 22.38Q145.14 19.97 148.75 19.97L148.75 19.97Q152.00 19.97 153.91 21.91Q155.82 23.85 155.85 26.83L155.85 26.83Q155.85 27.81 155.64 28.93L155.64 28.93L145.04 28.93Q145.35 33.34 149.24 33.34L149.24 33.34Q151.06 33.34 151.84 32.47Q152.63 31.59 152.88 30.61L152.88 30.61ZM145.07 26.62L152.00 26.62Q152.14 25.22 151.35 23.98Q150.57 22.73 148.71 22.73L148.71 22.73Q147.03 22.73 146.16 23.85Q145.28 24.98 145.07 26.62L145.07 26.62ZM167.82 30.50L170.59 31.38Q169.92 36.35 165.06 36.35L165.06 36.35Q162.54 36.35 161.05 35.02Q159.56 33.69 159.56 31.31L159.56 31.31L159.56 23.05L157.25 23.05L157.25 20.28L159.56 20.28L159.56 15.42L163.31 15.42L163.31 20.28L169.15 20.28L169.15 23.05L163.31 23.05L163.31 30.71Q163.31 33.20 165.48 33.20L165.48 33.20Q166.07 33.20 166.81 32.76Q167.54 32.33 167.82 30.50L167.82 30.50ZM190.15 33.13L190.15 36L181.72 36L181.72 33.13L184.06 33.13L184.06 26.97Q184.06 24.73 183.22 23.80Q182.38 22.88 180.95 22.88L180.95 22.88Q179.23 22.88 178.22 23.99Q177.20 25.11 177.13 26.73L177.13 26.73L177.13 33.13L179.44 33.13L179.44 36L171.04 36L171.04 33.13L173.39 33.13L173.39 14.79L171.04 14.79L171.04 11.92L177.13 11.92L177.13 22.88Q178.74 19.97 182.35 19.97L182.35 19.97Q184.62 19.97 186.21 21.34Q187.81 22.70 187.81 25.60L187.81 25.60L187.81 33.13L190.15 33.13ZM203.24 30.61L206.36 31.20Q206.15 33.27 204.33 34.81Q202.51 36.35 199.32 36.35L199.32 36.35Q195.89 36.35 193.69 34.34Q191.48 32.33 191.48 28.41L191.48 28.41Q191.48 24.80 193.49 22.38Q195.51 19.97 199.11 19.97L199.11 19.97Q202.37 19.97 204.27 21.91Q206.18 23.85 206.22 26.83L206.22 26.83Q206.22 27.81 206.01 28.93L206.01 28.93L195.40 28.93Q195.72 33.34 199.60 33.34L199.60 33.34Q201.42 33.34 202.21 32.47Q203.00 31.59 203.24 30.61L203.24 30.61ZM195.44 26.62L202.37 26.62Q202.51 25.22 201.72 23.98Q200.93 22.73 199.08 22.73L199.08 22.73Q197.40 22.73 196.52 23.85Q195.65 24.98 195.44 26.62L195.44 26.62ZM217.87 20.04L217.87 20.04Q219.45 20.04 220.81 20.91L220.81 20.91L221.48 25.81L218.57 26.16L217.98 23.47Q217.28 23.12 216.79 23.12L216.79 23.12Q215.81 23.12 215.09 23.92Q214.37 24.73 214.37 26.16L214.37 26.16L214.37 33.13L217.49 33.13L217.49 36L208.28 36L208.28 33.13L210.63 33.13L210.63 23.19L208.18 23.19L208.18 20.28L214.09 20.28L214.09 23.23Q214.51 21.89 215.44 20.97Q216.37 20.04 217.87 20.04Z"></path></g>
          
        </svg>